<svg xmlns="http://www.w3.org/2000/svg" viewBox="0 0 512 512">
  <defs>
    <linearGradient id="g" x1="0%" x2="100%" y1="0%" y2="100%">
      <stop offset="0%" stop-color="#cc7a53" />
      <stop offset="100%" stop-color="#2f4a42" />
    </linearGradient>
  </defs>
  <rect width="512" height="512" rx="120" fill="#f3ecdf" />
  <rect x="46" y="46" width="420" height="420" rx="100" fill="url(#g)" />
  <path
    fill="#f9f2e8"
    d="M175 132h162c22 0 39 17 39 39v170c0 22-17 39-39 39H175c-22 0-39-17-39-39V171c0-22 17-39 39-39Zm0 44c-8 0-15 7-15 15v150c0 8 7 15 15 15h162c8 0 15-7 15-15V191c0-8-7-15-15-15Zm36 44h90a15 15 0 1 1 0 30h-90a15 15 0 1 1 0-30Zm0 62h90a15 15 0 1 1 0 30h-90a15 15 0 1 1 0-30Z"
  />
</svg>
